<svg width="0" height="0" class="hidden">
  <symbol version="1.0" xmlns="http://www.w3.org/2000/svg" preserveAspectRatio="xMidYMid meet" viewBox="0 0 162.000000 126.000000" id="logo-word-blue">
    <g transform="translate(0.000000,126.000000) scale(0.100000,-0.100000)" fill="var(--logo-color, #0D1329)" fill-rule="nonzero">
      <path d="M86 1233 c-3 -15 -21 -134 -41 -263 -19 -129 -37 -250 -40 -268 l-6
-33 43 3 c38 3 43 6 46 28 9 89 10 90 53 90 43 0 44 -1 54 -72 l6 -48 40 0
c31 0 39 4 39 18 -1 9 -20 141 -43 292 l-42 275 -52 3 c-49 3 -51 2 -57 -25z
m83 -340 c1 -14 -45 -18 -52 -5 -4 5 17 191 24 212 1 5 27 -184 28 -207z"></path>
      <path d="M690 1165 c0 -48 -2 -55 -20 -55 -16 0 -20 -7 -20 -35 0 -28 4 -35
20 -35 19 0 20 -7 20 -137 0 -203 13 -233 99 -233 40 0 41 1 41 35 0 28 -4 35
-20 35 -32 0 -40 33 -40 169 l0 131 30 0 c28 0 30 3 30 35 0 32 -2 35 -30 35
-30 0 -30 1 -30 55 l0 55 -40 0 -40 0 0 -55z"></path>
      <path d="M1480 1165 c0 -48 -2 -55 -20 -55 -16 0 -20 -7 -20 -35 0 -28 4 -35
20 -35 19 0 20 -7 20 -137 0 -203 13 -233 99 -233 40 0 41 1 41 35 0 28 -4 35
-20 35 -32 0 -40 33 -40 169 l0 131 30 0 c28 0 30 3 30 35 0 32 -2 35 -30 35
-30 0 -30 1 -30 55 l0 55 -40 0 -40 0 0 -55z"></path></g>
<g transform="translate(0.000000,126.000000) scale(0.100000,-0.100000)" fill="var(--logo-color-brush, #212121)" fill-rule="nonzero">
      <path d="M1048 1105 c-49 -96 -80 -206 -85 -295 -2 -47 -29 -237 -60 -423 -52
-307 -55 -339 -41 -353 21 -21 56 -10 63 19 3 12 27 155 55 317 28 162 62 331
76 375 22 65 28 105 31 210 3 72 1 146 -4 165 l-10 35 -25 -50z"></path></g>
<g transform="translate(0.000000,126.000000) scale(0.100000,-0.100000)" fill="var(--logo-color, #0D1329)" fill-rule="nonzero">
      <path d="M517 1101 c-29 -15 -37 -16 -37 -5 0 10 -12 14 -40 14 l-40 0 0 -545
0 -545 40 0 40 0 0 495 c0 478 1 495 19 505 11 5 29 10 40 10 18 0 21 6 21 45
0 25 -1 45 -3 45 -1 0 -19 -9 -40 -19z"></path>
      <path d="M1214 1113 c-57 -11 -91 -101 -60 -161 9 -17 38 -56 66 -88 52 -60
64 -100 35 -124 -19 -16 -40 0 -49 35 -5 21 -13 25 -41 25 -28 0 -35 -4 -35
-19 0 -98 113 -149 181 -82 24 24 29 38 29 76 0 57 -10 76 -72 143 -43 46 -49
57 -46 89 4 46 34 59 44 19 5 -22 12 -26 40 -26 31 0 34 3 34 29 0 56 -62 97
-126 84z"></path>
      <path d="M90 315 l0 -295 40 0 40 0 0 130 0 130 40 0 c40 0 40 0 40 39 0 39
-1 40 -37 43 l-38 3 -3 78 -3 77 61 0 60 0 0 45 0 45 -100 0 -100 0 0 -295z"></path>
      <path d="M639 431 c-21 -22 -29 -39 -29 -65 0 -35 1 -36 40 -36 38 0 40 2 40
30 0 23 4 30 20 30 17 0 20 -7 20 -45 0 -43 -2 -47 -47 -74 -61 -38 -83 -75
-83 -141 0 -95 46 -142 100 -101 23 17 29 18 34 6 3 -10 20 -15 47 -15 33 0
40 3 35 16 -3 9 -6 94 -6 189 0 172 0 174 -26 204 -22 26 -33 31 -71 31 -36 0
-50 -6 -74 -29z m91 -270 c0 -45 -4 -60 -16 -65 -25 -9 -34 2 -34 42 0 37 22
82 41 82 5 0 9 -27 9 -59z"></path>
      <path d="M1150 240 l0 -220 40 0 40 0 0 163 c0 146 2 166 18 180 10 10 28 17
40 17 19 0 22 6 22 40 0 45 -18 52 -58 24 -20 -14 -22 -14 -22 0 0 12 -10 16
-40 16 l-40 0 0 -220z"></path>
    </g>
  </symbol>
</svg>