<?xml version="1.0" standalone="no"?>
<!DOCTYPE svg PUBLIC "-//W3C//DTD SVG 20010904//EN"
 "http://www.w3.org/TR/2001/REC-SVG-20010904/DTD/svg10.dtd">
<svg version="1.0" xmlns="http://www.w3.org/2000/svg"
 width="150" height="150" viewBox="0 0 500.000000 500.000000"
 preserveAspectRatio="xMidYMid meet">

<g transform="translate(0.000000,500.000000) scale(0.100000,-0.100000)"
fill="#000000" stroke="none">
<path d="M2914 4714 c-12 -46 2 -228 20 -262 15 -30 15 -31 -1 -25 -10 4 -23
12 -29 17 -30 28 -55 46 -63 46 -5 0 -24 12 -42 28 -38 31 -101 36 -141 10
-24 -16 -108 -29 -108 -17 0 13 -73 21 -80 9 -5 -8 -9 -7 -13 4 -5 13 -20 15
-90 11 -70 -4 -90 -2 -125 15 -22 11 -47 20 -55 20 -8 0 -30 6 -49 14 -32 14
-82 21 -223 32 -33 2 -72 7 -86 10 -23 5 -27 3 -29 -23 -10 -119 4 -154 70
-168 19 -4 40 -11 45 -15 6 -4 30 -11 55 -15 66 -11 79 -20 49 -36 -45 -25
-124 -62 -137 -65 -17 -3 -52 -34 -52 -46 0 -13 38 -9 43 5 4 8 6 8 6 1 1 -14
81 3 81 17 0 5 5 9 10 9 20 0 10 -19 -17 -33 -107 -55 -133 -67 -147 -67 -27
0 -78 -30 -73 -43 5 -16 57 -22 57 -6 0 8 4 8 13 2 15 -13 48 -8 57 7 6 9 9 9
12 -1 4 -11 10 -11 36 0 17 7 29 17 26 22 -3 5 2 6 10 3 11 -4 16 0 16 10 0 9
8 16 18 16 9 0 51 33 93 73 72 68 132 122 117 103 -4 -5 0 -15 10 -22 16 -13
16 -13 0 -14 -10 0 -18 -5 -18 -11 0 -6 8 -8 18 -5 24 7 103 27 127 33 11 2
38 6 60 9 22 3 47 7 55 10 50 20 250 -1 250 -26 0 -11 77 -33 89 -26 6 4 11 2
11 -3 0 -6 10 -11 23 -10 12 0 40 -4 62 -9 40 -8 40 -8 11 -15 -97 -26 -182
-93 -185 -147 -3 -60 8 -88 37 -95 15 -3 28 -2 30 3 1 5 13 7 25 5 13 -3 29 2
36 11 7 8 19 12 28 9 9 -4 19 1 25 10 4 9 15 14 23 11 8 -4 15 -1 15 7 0 7 3
10 6 6 3 -3 32 6 63 20 59 26 175 38 189 18 4 -6 32 -30 62 -54 30 -25 60 -51
67 -59 6 -8 17 -11 23 -7 6 4 9 1 8 -7 -2 -7 3 -12 10 -10 8 1 11 -2 8 -7 -3
-5 3 -20 14 -34 11 -14 20 -29 20 -34 0 -5 16 -33 36 -63 l35 -55 -5 54 c-3
29 -11 60 -18 69 -10 12 -10 14 0 8 16 -10 38 -63 58 -140 8 -34 23 -79 33
-101 29 -62 42 -118 31 -129 -15 -15 -11 -77 5 -106 8 -14 14 -33 15 -42 0
-15 -4 -16 -27 -7 -15 5 -60 13 -100 16 l-73 6 0 -62 c0 -104 45 -125 115 -53
19 20 37 33 40 30 8 -8 -21 -66 -47 -94 -19 -21 -19 -21 29 -42 26 -11 62 -23
78 -27 70 -16 67 -13 61 -63 -28 -244 -35 -283 -53 -314 -11 -18 -22 -51 -26
-72 -7 -41 -88 -172 -137 -220 -16 -16 -32 -37 -35 -47 -4 -11 -10 -19 -15
-19 -11 0 -34 -78 -31 -102 1 -10 -14 -34 -33 -53 -20 -20 -36 -39 -36 -44 0
-4 -8 -15 -18 -25 -24 -21 -68 -110 -77 -154 -4 -17 -10 -32 -13 -32 -10 0
-49 -86 -62 -135 -21 -78 -141 -182 -220 -190 -32 -3 -106 -40 -117 -59 -4 -7
-27 -15 -50 -18 l-43 -4 0 51 0 50 62 18 c34 10 74 27 89 38 15 10 30 19 33
19 12 0 45 34 40 42 -3 4 2 5 10 2 9 -3 17 2 21 15 3 12 12 21 19 21 19 0 35
47 35 106 1 45 -2 52 -24 62 -31 14 -101 7 -132 -13 -12 -8 -27 -15 -33 -15
-7 0 -30 -15 -53 -33 -72 -58 -71 -58 -63 14 8 76 38 178 55 188 25 16 26 161
1 161 -4 0 -16 -24 -26 -52 -9 -29 -26 -66 -37 -83 l-19 -30 6 40 c3 22 8 72
11 110 11 127 7 123 73 67 98 -84 211 -152 251 -152 19 0 20 4 14 48 -3 26
-12 55 -20 64 -8 9 -12 22 -8 27 3 6 2 11 -4 11 -11 0 -28 52 -29 89 -1 18 2
21 11 12 20 -20 26 -12 14 19 -7 17 -17 28 -24 26 -7 -3 -10 1 -6 10 6 17 15
18 31 2 9 -9 15 -9 24 0 10 10 5 15 -20 24 -17 7 -31 17 -31 23 4 32 -5 46
-43 68 -24 14 -56 37 -71 51 -26 24 -27 28 -12 42 9 9 13 24 10 35 -4 13 -2
19 9 19 8 0 19 8 25 17 8 16 17 13 93 -24 46 -23 96 -47 111 -52 15 -6 27 -18
27 -28 1 -10 10 -34 20 -53 19 -33 20 -34 14 -6 -4 16 -3 27 2 25 98 -43 112
-53 126 -82 l16 -32 -5 45 c-3 25 -26 87 -51 139 -36 75 -42 95 -31 102 20 13
47 11 52 -3 4 -10 6 -10 6 0 1 7 -6 15 -14 18 -25 10 -17 22 27 45 23 12 61
42 86 68 l45 46 -109 5 c-111 6 -204 33 -204 61 0 6 7 8 15 5 31 -11 145 -29
151 -23 15 15 -11 27 -58 27 -39 0 -68 8 -119 35 -38 19 -82 35 -98 35 -17 0
-31 5 -31 10 0 16 -18 12 -82 -17 -44 -19 -62 -23 -70 -15 -9 9 -7 17 6 31 19
21 136 80 199 100 20 7 37 17 37 23 0 6 -8 7 -17 3 -10 -3 -31 -9 -47 -12 -28
-6 -28 -5 -21 28 4 18 14 43 22 55 61 94 71 288 17 341 -8 8 -14 25 -14 39 0
13 -5 24 -11 24 -5 0 -8 4 -4 9 6 11 -35 101 -47 101 -4 0 -8 9 -8 20 0 11 -4
20 -9 20 -5 0 -11 9 -14 20 -3 11 -12 20 -20 20 -42 0 -34 -250 10 -335 6 -11
18 -44 26 -73 15 -52 15 -53 -9 -67 -13 -8 -35 -22 -48 -30 -16 -9 -27 -11
-31 -5 -13 22 -25 8 -25 -29 0 -22 -5 -52 -11 -68 -6 -15 -15 -52 -20 -82 -5
-30 -16 -62 -24 -70 -15 -15 -17 -14 -29 2 -21 27 -26 21 -26 -30 0 -27 -12
-79 -26 -118 -14 -38 -29 -84 -33 -101 -5 -17 -17 -44 -28 -60 -11 -16 -28
-42 -38 -58 -12 -21 -19 -25 -25 -16 -5 7 -6 19 -3 27 3 8 0 13 -8 11 -10 -2
-14 8 -15 32 -3 59 -16 122 -25 113 -9 -9 -11 -218 -3 -281 7 -49 -14 -92 -45
-92 -24 0 -31 19 -31 89 0 43 5 62 20 79 17 18 20 35 20 109 0 49 4 103 9 120
8 26 6 37 -11 58 -16 20 -23 23 -34 14 -8 -6 -14 -23 -14 -38 0 -34 -41 -106
-60 -106 -28 0 -22 44 15 109 32 57 34 65 18 68 -42 10 -97 -27 -140 -95 -24
-39 -29 -70 -19 -117 9 -40 -12 -100 -35 -100 -41 0 -55 117 -18 148 12 9 29
35 39 57 38 83 123 144 185 132 35 -6 57 21 42 50 -12 21 -14 22 -41 8 -15 -8
-32 -15 -36 -15 -16 0 -18 28 -4 55 18 36 19 35 -14 35 -54 0 -172 -116 -172
-169 0 -18 -11 -35 -36 -54 -38 -31 -46 -30 -48 5 -2 37 -49 47 -96 22 -25
-14 -52 -20 -76 -18 -21 1 -53 -4 -71 -11 -28 -12 -43 -12 -95 0 -104 22 -126
34 -159 83 -29 43 -32 53 -30 117 1 38 4 72 7 74 2 3 22 -6 44 -18 22 -12 46
-21 52 -19 7 3 20 -4 30 -14 13 -13 33 -17 82 -17 51 1 72 -4 95 -21 24 -17
37 -19 63 -12 31 8 33 11 36 58 3 49 2 51 -37 77 -22 15 -45 27 -50 27 -5 0
-11 7 -15 15 -3 8 -10 15 -16 15 -6 0 -30 13 -53 28 -81 53 -148 78 -224 81
l-51 2 -5 -38 c-9 -58 -6 -75 18 -113 20 -33 21 -38 8 -85 -8 -30 -11 -72 -8
-105 3 -30 5 -68 5 -83 -1 -41 27 -117 58 -157 49 -64 164 -151 219 -165 29
-7 27 -17 -19 -79 -55 -74 -100 -91 -159 -61 -29 15 -65 11 -40 -5 7 -4 13
-20 15 -36 2 -17 9 -29 17 -29 8 0 19 -6 25 -14 7 -9 44 -15 115 -18 95 -5
109 -3 168 21 35 14 67 23 72 20 5 -2 19 13 33 34 29 47 120 128 157 141 l27
9 -25 -56 c-14 -32 -28 -61 -33 -67 -4 -5 -22 -48 -40 -95 -17 -47 -40 -94
-51 -106 -11 -11 -16 -24 -12 -28 5 -5 -3 -5 -17 -1 -21 7 -23 6 -12 -7 10
-13 8 -20 -13 -39 -14 -13 -37 -45 -52 -71 -21 -38 -29 -46 -40 -37 -17 15
-17 -1 1 -27 13 -18 21 -19 88 -13 88 8 170 36 251 84 33 20 61 34 63 33 1 -2
-2 -24 -7 -48 -6 -25 -9 -108 -7 -185 3 -120 7 -146 26 -182 12 -23 22 -45 22
-48 0 -14 -29 -2 -50 20 -27 29 -75 55 -101 55 -10 0 -21 5 -25 11 -3 6 -15 9
-25 6 -11 -3 -19 -1 -19 4 0 16 -140 5 -150 -11 -5 -8 -8 -37 -7 -65 2 -49 30
-95 57 -95 6 0 10 -5 10 -10 0 -6 12 -16 28 -23 15 -6 29 -14 32 -17 15 -15
111 -60 129 -60 12 0 21 -4 21 -9 0 -5 19 -16 43 -23 31 -11 43 -21 45 -38 3
-19 1 -21 -15 -15 -40 17 -62 16 -103 -4 -24 -12 -50 -21 -57 -21 -8 0 -11 -5
-7 -12 4 -6 3 -8 -4 -4 -6 3 -22 1 -37 -6 -41 -19 -57 6 -65 102 -7 76 -20
107 -41 94 -4 -2 -10 0 -14 6 -3 5 -22 10 -41 10 -49 0 -74 29 -74 84 0 25 -6
51 -13 58 -33 34 -57 79 -57 107 0 31 -1 32 -39 27 -38 -5 -39 -4 -43 30 -2
19 0 34 4 34 4 0 8 24 8 54 0 45 -4 58 -22 70 -12 9 -18 16 -13 16 6 0 -11 11
-37 24 -26 13 -55 23 -65 22 -15 -1 -19 10 -23 68 -3 43 -10 71 -18 74 -6 2
-10 8 -6 13 3 5 -2 9 -11 9 -9 0 -13 5 -10 11 4 5 -9 24 -29 41 -36 31 -36 31
-36 114 0 45 -4 94 -10 108 -8 23 -72 107 -120 158 -11 12 -29 40 -41 62 -18
35 -20 51 -14 120 15 195 26 263 50 290 12 14 27 26 33 26 6 0 23 26 38 58 25
53 27 67 28 189 l1 132 73 67 c72 66 88 94 54 94 -22 0 -107 -45 -107 -57 0
-5 -15 -24 -33 -42 -17 -18 -35 -43 -38 -57 -3 -13 -10 -24 -14 -24 -4 0 -14
-15 -21 -34 -12 -29 -17 -32 -36 -25 -21 8 -23 14 -23 91 0 114 -15 196 -40
223 -12 13 -46 30 -76 40 -30 9 -56 21 -60 26 -3 5 -14 9 -25 9 -18 0 -19 -5
-14 -56 3 -31 10 -65 16 -76 6 -12 15 -53 20 -92 5 -39 13 -80 18 -91 13 -28
42 -146 43 -170 0 -26 -10 -186 -13 -202 -1 -7 -6 -13 -11 -13 -5 0 -6 -4 -3
-10 3 -5 2 -10 -3 -10 -16 0 -44 -132 -49 -236 -5 -100 7 -174 28 -174 6 0 7
-4 4 -10 -3 -5 1 -10 9 -10 8 0 17 -9 21 -19 3 -11 37 -43 76 -72 38 -28 67
-54 64 -57 -3 -3 -11 0 -17 6 -7 7 -20 12 -30 12 -10 0 -18 5 -18 10 0 6 -4
10 -10 10 -5 0 -10 -16 -10 -35 0 -28 5 -38 23 -45 16 -6 17 -9 5 -9 -9 -1
-20 4 -23 10 -4 6 -13 8 -21 5 -8 -3 -14 -1 -14 4 0 18 -61 21 -112 6 -37 -11
-71 -32 -114 -70 -33 -30 -71 -56 -85 -58 -20 -2 -25 -9 -27 -42 -2 -22 -1
-50 3 -64 5 -20 10 -23 33 -18 15 3 52 11 82 16 30 6 71 13 90 17 60 11 133 7
190 -12 51 -16 56 -20 58 -49 2 -35 21 -86 31 -86 4 0 18 -19 31 -42 33 -59
78 -106 118 -125 19 -9 37 -26 40 -37 3 -11 20 -50 39 -86 32 -64 42 -113 24
-125 -5 -3 -12 -1 -15 4 -13 21 -146 -14 -146 -38 0 -5 -8 -11 -18 -13 -10 -3
-28 -25 -39 -50 -13 -27 -37 -54 -61 -71 -41 -26 -54 -27 -114 -2 -16 6 -18 1
-18 -49 0 -88 7 -94 109 -88 47 2 95 9 106 15 11 6 27 10 37 9 9 -2 19 2 23 8
3 5 13 10 22 10 17 0 113 68 151 106 13 13 29 24 36 24 7 0 35 -20 62 -45 27
-24 52 -45 57 -45 4 0 7 -5 7 -11 0 -5 -5 -7 -11 -4 -12 8 -49 -23 -49 -42 0
-7 -8 -13 -18 -13 -58 0 -112 -61 -112 -125 0 -19 -8 -28 -36 -40 -19 -8 -33
-19 -29 -25 3 -6 0 -7 -9 -4 -9 3 -16 1 -16 -5 0 -6 -7 -11 -16 -11 -9 0 -21
-13 -27 -30 -6 -16 -15 -30 -19 -30 -14 0 -9 -115 6 -135 13 -17 17 -18 40 -6
14 8 33 26 42 39 9 14 37 45 62 70 40 38 47 42 53 25 3 -10 4 -53 1 -95 l-5
-78 -33 -1 c-19 -1 -37 -2 -41 -4 -24 -6 -52 -18 -83 -34 -34 -18 -35 -21 -35
-77 l0 -59 63 -3 c42 -2 69 2 80 10 13 11 14 11 7 -1 -6 -11 -3 -13 19 -7 14
3 26 4 26 2 0 -6 -125 -106 -173 -139 -23 -15 -56 -51 -75 -80 -28 -45 -32
-59 -30 -106 2 -40 8 -57 22 -65 14 -8 20 -8 23 2 3 6 10 12 16 12 7 0 24 21
39 48 23 40 28 44 33 27 14 -42 29 -65 42 -65 7 0 13 -5 13 -12 0 -6 12 -35
26 -65 22 -44 35 -57 73 -75 25 -11 62 -23 82 -25 31 -5 37 -2 42 18 18 65 -8
149 -45 149 -10 0 -18 4 -18 9 0 8 -40 24 -65 26 -20 1 -125 86 -125 101 0 16
39 74 51 74 3 0 9 -13 12 -29 13 -62 167 -158 222 -138 15 6 17 17 13 68 -4
55 -8 64 -39 90 -19 16 -50 32 -69 36 -19 4 -38 8 -42 9 -5 1 -16 2 -25 3 -13
1 -8 9 19 34 22 20 43 54 58 94 l22 62 26 -31 c14 -17 28 -49 32 -71 6 -47 30
-63 30 -20 l0 28 15 -30 c9 -16 23 -35 31 -41 8 -7 17 -25 20 -40 3 -16 11
-36 18 -44 7 -8 17 -26 23 -40 6 -14 42 -74 79 -133 38 -59 81 -127 96 -153
16 -25 32 -42 38 -39 5 3 10 2 10 -2 0 -5 12 -21 27 -38 16 -16 33 -38 38 -49
15 -31 129 -85 188 -91 29 -3 69 -8 91 -11 59 -7 214 40 259 79 20 18 47 41
61 51 14 10 26 23 26 28 0 5 5 14 10 21 40 47 50 61 50 71 0 6 13 -13 28 -42
38 -71 85 -108 121 -96 24 9 26 15 29 70 3 71 -13 99 -77 129 -44 21 -46 30
-20 97 10 24 13 26 26 12 30 -29 38 -10 38 84 0 87 1 91 23 97 14 3 20 10 16
17 -4 6 -3 9 2 5 17 -10 69 19 84 47 12 24 12 28 0 36 -12 8 -10 10 8 10 14 0
22 6 22 18 1 9 3 50 6 90 6 68 4 74 -15 79 -12 3 -24 15 -27 27 -7 29 12 76
30 76 20 0 26 25 21 83 -4 51 4 53 39 9 10 -13 25 -21 32 -18 13 5 18 -5 15
-26 -1 -11 40 -31 47 -23 4 4 7 46 7 94 0 67 -4 93 -18 114 -10 15 -22 25 -27
22 -6 -4 -14 5 -20 19 -6 16 -17 26 -29 26 -11 0 -23 4 -26 10 -3 5 -15 10
-25 10 -31 0 -34 20 -6 49 14 15 23 31 19 35 -4 4 0 4 9 1 22 -8 58 47 58 88
0 55 18 59 90 20 36 -20 77 -42 91 -49 14 -8 34 -23 45 -35 26 -29 50 -40 68
-33 24 9 23 186 -1 210 -10 10 -23 27 -28 38 -6 12 -17 21 -25 21 -8 0 -18 5
-23 12 -4 7 -23 15 -42 19 -31 6 -35 10 -35 38 0 22 9 42 28 62 36 37 50 73
57 149 5 49 11 64 33 82 15 12 32 22 38 23 6 0 23 11 38 25 21 19 26 33 26 70
l0 45 43 1 c23 0 51 3 62 5 11 2 61 9 110 14 121 14 122 14 130 60 9 53 -10
107 -43 124 -44 22 -100 27 -116 10 -9 -9 -16 -10 -18 -3 -4 12 -82 -15 -109
-38 -8 -7 -22 -13 -30 -13 -8 0 -20 -5 -27 -12 -6 -6 -14 -9 -17 -6 -9 9 18
62 43 81 23 19 58 76 54 90 -1 4 2 7 7 7 16 0 51 136 51 199 0 38 4 61 11 61
8 0 8 4 0 14 -9 11 -7 12 12 9 14 -3 31 2 40 11 8 9 20 16 26 16 6 0 16 9 23
19 6 10 17 17 23 15 6 -3 24 7 39 21 15 14 30 25 33 25 3 0 17 12 31 27 22 24
26 38 26 93 l1 65 -42 3 c-23 2 -57 -4 -80 -14 -21 -9 -40 -18 -43 -18 -12 -2
-65 -43 -92 -70 -24 -24 -31 -27 -39 -15 -5 8 -9 22 -9 32 0 21 -27 75 -47 95
-25 26 -41 67 -49 132 -11 93 -11 94 11 100 17 5 63 68 81 110 3 8 12 29 19
45 41 97 48 126 42 181 -3 31 -8 58 -11 61 -3 3 -19 0 -35 -6 -36 -15 -80 -69
-120 -147 -17 -33 -31 -52 -32 -44 -2 38 -11 65 -35 105 -30 53 -49 69 -66 59
-7 -4 -10 -4 -6 1 9 10 -12 30 -41 40 -13 4 -38 23 -55 42 -70 78 -84 93 -89
93 -4 0 -19 12 -34 26 -15 14 -47 34 -70 45 -30 14 -47 29 -57 53 -8 18 -19
36 -24 40 -10 6 -42 70 -102 204 -26 57 -82 122 -105 122 -8 0 -18 -12 -21
-26z m33 -116 c-3 -8 -6 -5 -6 6 -1 11 2 17 5 13 3 -3 4 -12 1 -19z m-149
-199 c-7 -5 -14 -4 -16 1 -2 6 -10 10 -18 10 -8 0 -14 2 -14 4 0 2 -3 12 -6
21 -5 13 1 12 31 -6 27 -16 33 -24 23 -30z m-453 31 c-4 -6 -11 -8 -16 -5 -5
4 -9 1 -9 -5 0 -6 -5 -8 -11 -4 -8 4 -7 9 2 15 19 12 42 11 34 -1z m-95 -28
c0 -4 -10 -9 -22 -9 -18 -2 -20 0 -8 7 18 12 30 13 30 2z m0 -36 c0 -2 -7 -9
-15 -16 -12 -10 -15 -10 -15 4 0 9 7 16 15 16 8 0 15 -2 15 -4z m946 -127 c3
-5 12 -9 20 -9 20 0 94 -75 94 -95 0 -13 -4 -12 -22 5 -47 45 -95 79 -102 73
-3 -3 -6 -1 -6 5 0 7 -7 12 -15 12 -8 0 -15 6 -15 14 0 15 36 11 46 -5z m169
-169 c3 -5 1 -10 -4 -10 -6 0 -11 5 -11 10 0 6 2 10 4 10 3 0 8 -4 11 -10z
m210 -159 c26 -51 26 -55 13 -122 -8 -44 -15 -63 -19 -52 -6 17 -9 36 -24 168
-4 28 -10 54 -16 60 -5 5 -9 13 -9 18 0 17 28 -20 55 -72z m205 65 c0 -3 -4
-8 -10 -11 -5 -3 -10 -1 -10 4 0 6 5 11 10 11 6 0 10 -2 10 -4z m-2380 -335
c-15 -58 -20 -48 -13 24 5 47 8 55 15 39 6 -13 5 -36 -2 -63z m1597 -3 c-3 -7
-5 -2 -5 12 0 14 2 19 5 13 2 -7 2 -19 0 -25z m-1706 -56 c-43 -40 -51 -28
-22 34 l22 45 18 -22 c18 -23 18 -23 -18 -57z m2336 46 c-3 -8 -6 -5 -6 6 -1
11 2 17 5 13 3 -3 4 -12 1 -19z m-2419 -109 c-19 -12 -21 -4 -13 38 l8 38 9
-34 c7 -25 6 -36 -4 -42z m2423 -39 c7 -5 49 -96 49 -106 0 -2 -11 2 -24 11
-13 9 -30 37 -40 66 -18 59 -21 83 -4 54 6 -11 15 -22 19 -25z m-2416 -90 c-8
-16 -15 -36 -15 -45 0 -8 -4 -15 -10 -15 -16 0 -40 -100 -41 -169 l0 -66 -17
33 c-13 28 -14 39 -3 85 19 82 42 139 68 175 30 40 38 41 18 2z m71 -28 c-2
-4 -10 -63 -17 -131 -9 -95 -14 -119 -23 -105 -5 11 -10 51 -10 89 0 54 5 80
22 113 12 23 25 42 28 42 3 0 3 -3 0 -8z m1649 -42 c3 -5 1 -10 -4 -10 -6 0
-11 5 -11 10 0 6 2 10 4 10 3 0 8 -4 11 -10z m802 -42 c-3 -7 -5 -2 -5 12 0
14 2 19 5 13 2 -7 2 -19 0 -25z m-2526 -94 c1 -43 7 -97 15 -119 19 -55 18
-61 -7 -39 -33 30 -51 73 -46 108 9 50 31 136 34 133 1 -2 3 -39 4 -83z m2538
-41 c-1 -10 -5 -29 -9 -43 -7 -21 -8 -19 -9 18 -1 23 4 42 9 42 6 0 10 -8 9
-17z m28 -95 c-3 -7 -5 -2 -5 12 0 14 2 19 5 13 2 -7 2 -19 0 -25z m-107 -101
c-20 -29 -21 -30 -16 -7 3 14 9 43 13 65 l7 40 8 -33 c7 -27 5 -40 -12 -65z
m-2259 -187 c9 -8 22 -25 28 -38 11 -20 10 -26 -5 -36 -12 -10 -15 -20 -10
-41 13 -53 -20 -3 -37 56 -9 31 -28 72 -42 93 l-25 37 37 -28 c21 -15 45 -35
54 -43z m359 -52 c0 -16 -3 -19 -11 -11 -6 6 -8 16 -5 22 11 17 16 13 16 -11z
m1858 -167 c-12 -19 -55 -37 -65 -27 -13 13 31 44 65 45 10 1 10 -3 0 -18z
m-2208 -26 c0 -25 -14 -34 -24 -16 -8 12 3 41 15 41 5 0 9 -11 9 -25z m1246
-27 c-21 -143 -30 -189 -36 -193 -4 -3 -13 8 -20 24 -11 28 0 90 32 174 14 37
30 34 24 -5z m-237 -39 c-5 -22 -17 -57 -26 -77 -10 -25 -17 -75 -19 -152 -6
-179 -7 -190 -21 -178 -31 25 -46 97 -40 191 8 137 22 186 66 224 20 18 39 33
42 33 4 0 3 -18 -2 -41z m-889 -34 c0 -8 -5 -15 -12 -15 -6 0 -8 3 -5 6 4 4
-2 19 -13 34 -27 39 -25 46 5 16 14 -14 25 -32 25 -41z m1904 13 c-35 -43 -54
-59 -54 -48 0 13 54 70 66 70 4 0 -1 -10 -12 -22z m37 -105 c-10 -21 -28 -47
-40 -57 -21 -19 -21 -19 -21 6 0 17 12 37 35 57 20 17 38 31 41 31 2 0 -4 -17
-15 -37z m-889 -123 l-20 -33 -10 39 c-6 21 -13 53 -17 69 l-6 30 36 -36 37
-36 -20 -33z m-1006 25 c24 -37 10 -42 -16 -6 -12 17 -17 31 -11 31 6 0 18
-11 27 -25z m1764 6 c0 -10 -7 -21 -15 -24 -12 -5 -12 -2 -3 18 13 30 18 31
18 6z m-1684 -36 c8 -8 14 -16 14 -17 -1 -2 3 -16 9 -31 6 -16 11 -38 10 -50
0 -13 -9 1 -20 32 -10 29 -24 60 -30 67 -15 19 -1 18 17 -1z m1738 -99 c-3 -9
-15 -16 -26 -16 -19 0 -19 1 3 19 27 22 32 21 23 -3z m-759 -106 c0 -55 -1
-100 -2 -100 -1 0 -8 24 -17 53 -14 51 -17 107 -5 107 4 0 9 9 12 20 10 37 12
21 12 -80z m-212 -2 l17 -43 -25 28 c-25 28 -33 57 -17 57 5 0 16 -19 25 -42z
m-580 -89 c9 -32 -8 -21 -32 21 -12 22 -26 40 -32 40 -5 0 -9 5 -9 12 0 17 67
-50 73 -73z m571 -51 c-10 -16 -44 24 -44 50 0 26 0 25 25 -8 13 -18 22 -37
19 -42z m820 20 c-10 -13 -27 -29 -36 -36 -10 -7 -18 -20 -18 -29 0 -14 -3
-14 -20 2 -26 23 -25 32 3 41 12 4 24 10 27 13 4 6 49 29 59 30 2 1 -4 -9 -15
-21z m-1843 -11 c-10 -9 -11 -8 -5 6 3 10 9 15 12 12 3 -3 0 -11 -7 -18z
m1157 -239 c4 -52 2 -62 -18 -83 -13 -13 -26 -22 -30 -20 -14 9 -22 193 -9
216 11 22 12 22 31 -16 11 -21 23 -65 26 -97z m41 95 c30 -93 30 -92 13 -110
-16 -16 -17 -13 -23 38 -4 30 -10 66 -14 82 -11 41 10 33 24 -10z m-586 8 c4
-1 7 -26 7 -56 0 -44 -3 -53 -15 -49 -8 4 -15 19 -15 34 0 16 -4 40 -9 53 -8
21 -7 25 7 22 9 -2 20 -4 25 -4z m390 -12 c-3 -12 -11 -18 -19 -15 -8 3 -14
-2 -15 -12 0 -11 -2 -13 -6 -4 -3 7 3 22 13 32 25 25 33 25 27 -1z m-493 -20
c0 -6 -4 -7 -10 -4 -5 3 -10 11 -10 16 0 6 5 7 10 4 6 -3 10 -11 10 -16z
m1178 -47 c-6 -7 -20 -18 -30 -23 -15 -8 -18 -6 -18 13 0 14 9 27 23 33 26 12
42 -2 25 -23z m-1408 2 c0 -16 -23 -44 -35 -44 -18 0 -20 21 -3 38 12 12 38
17 38 6z m794 -19 c3 -8 1 -15 -4 -15 -6 0 -10 7 -10 15 0 8 2 15 4 15 2 0 6
-7 10 -15z m-674 -5 c0 -5 -6 -10 -13 -10 -14 0 -67 -54 -67 -69 0 -6 -9 -15
-20 -21 -23 -12 -25 -4 -7 37 6 16 17 28 23 26 5 -2 21 8 34 22 24 25 50 33
50 15z m513 -37 c14 -8 -22 -33 -38 -27 -9 4 -26 8 -38 9 -41 4 -42 7 -12 20
26 12 64 11 88 -2z m-408 -83 c11 -17 85 -61 106 -63 10 -1 19 -4 19 -8 0 -9
56 -28 93 -31 15 -1 27 -5 27 -8 0 -6 41 -24 79 -35 21 -6 23 -5 19 17 l-5 24
61 -12 c34 -8 89 -19 124 -25 56 -11 62 -14 62 -36 0 -19 4 -24 15 -19 10 4
20 -3 27 -19 6 -14 15 -25 20 -25 4 0 8 -7 8 -16 0 -10 5 -14 16 -10 8 3 12 2
9 -4 -3 -6 5 -10 18 -10 23 0 87 58 87 79 0 14 31 22 91 24 52 1 52 1 77 -44
14 -25 23 -52 20 -60 -4 -9 -35 -26 -70 -38 -34 -13 -70 -26 -78 -29 -8 -3
-18 -6 -22 -7 -5 -2 -9 -3 -10 -5 -4 -2 -109 -2 -175 0 -29 2 -53 6 -53 11 0
4 -12 10 -27 12 -16 3 8 3 52 1 43 -2 97 1 120 8 22 6 59 10 83 9 23 -1 42 2
42 8 0 5 9 7 20 4 11 -3 26 0 33 6 8 6 16 8 19 6 7 -8 58 13 58 23 0 5 -32 0
-72 -10 -124 -31 -372 -39 -495 -15 -70 14 -79 19 -188 105 -49 38 -74 51 -80
41 -4 -6 0 -18 9 -27 11 -11 16 -12 16 -4 0 7 5 10 11 6 8 -5 8 -8 0 -14 -8
-4 -1 -17 20 -38 18 -18 29 -32 24 -32 -5 0 -25 16 -45 35 l-35 34 -2 -26 c-1
-19 1 -22 8 -12 7 11 9 10 9 -5 0 -11 2 -17 5 -14 3 3 19 -6 35 -20 16 -14 28
-27 26 -29 -1 -2 -32 12 -67 30 -51 27 -65 39 -67 60 -3 20 -13 29 -48 43 -25
9 -50 27 -56 38 -6 12 -20 31 -31 43 -20 22 -20 23 -2 43 10 11 23 17 29 13 6
-4 5 0 -2 9 -10 13 -10 17 0 21 20 8 26 8 33 -3z m1252 -12 c20 -23 20 -23 2
-53 l-19 -30 0 28 c0 15 -4 27 -10 27 -5 0 -10 -8 -10 -17 0 -35 -25 -80 -67
-117 l-43 -39 0 82 c0 74 2 81 20 81 11 0 20 6 20 14 0 18 39 45 66 45 11 1
30 -9 41 -21z m-1377 -75 c-4 -70 -8 -88 -21 -91 -12 -2 -18 8 -22 43 -4 25
-9 55 -12 67 -4 18 2 28 27 46 18 12 33 22 33 22 0 0 -2 -39 -5 -87z m-66 -94
c6 -41 5 -47 -14 -52 -11 -3 -23 -1 -26 5 -8 13 -7 95 2 109 11 19 31 -13 38
-62z m436 -59 c30 -27 52 -51 50 -53 -3 -3 -32 19 -64 49 -33 30 -55 54 -50
54 5 -1 34 -23 64 -50z m781 33 c16 -10 29 -21 29 -25 0 -8 -40 -32 -44 -26
-8 15 -23 68 -19 68 3 0 18 -8 34 -17z m-1003 -38 c32 -19 69 -50 84 -68 35
-45 149 -102 218 -110 8 -1 17 -4 20 -7 26 -27 347 -53 374 -31 7 6 29 12 49
13 20 2 37 7 37 12 0 5 3 6 6 3 4 -3 15 -2 25 4 17 9 19 6 19 -25 0 -30 -6
-39 -44 -65 -45 -32 -96 -47 -96 -29 0 6 -20 7 -57 2 -97 -13 -314 -10 -358 4
-44 15 -107 44 -115 53 -3 3 -12 8 -20 12 -22 10 -50 29 -77 54 -14 12 -30 20
-37 17 -21 -8 -43 28 -55 91 -6 33 -16 62 -21 63 -6 2 -10 10 -10 17 0 7 -6
16 -12 18 -10 4 -10 6 0 6 8 1 39 -15 70 -34z m1238 -73 c-11 -10 -15 4 -8 28
l7 25 3 -23 c2 -13 1 -26 -2 -30z m-50 -24 c-5 -9 -13 -15 -17 -12 -4 2 -25
-14 -48 -36 -39 -38 -61 -50 -61 -31 0 5 9 11 20 14 11 3 20 12 20 20 0 10 -7
13 -20 10 -26 -7 -28 25 -2 33 40 13 102 48 103 58 1 6 4 0 8 -14 4 -14 3 -33
-3 -42z m-881 13 c59 -18 110 -25 205 -31 12 0 11 -3 -3 -11 -12 -7 -41 -6
-100 6 -103 21 -189 45 -201 56 -12 11 12 6 99 -20z m342 3 c-3 -3 -12 -4 -19
-1 -8 3 -5 6 6 6 11 1 17 -2 13 -5z m319 -152 c-17 -16 -18 -16 -5 5 7 12 15
20 18 17 3 -2 -3 -12 -13 -22z m-856 -92 c13 -11 29 -20 37 -20 7 0 13 -4 13
-10 0 -5 6 -10 13 -10 7 0 18 -5 25 -12 6 -6 20 -14 29 -16 35 -8 190 -20 271
-21 81 -1 83 -2 80 -23 -2 -19 -9 -23 -35 -22 -24 2 -33 -2 -33 -13 0 -11 -7
-14 -25 -11 -23 5 -25 2 -25 -28 0 -19 5 -34 10 -34 6 0 10 -6 10 -14 0 -22
24 -26 68 -11 23 8 90 16 154 17 62 1 116 7 120 13 4 5 8 -2 8 -17 0 -32 -27
-63 -61 -70 -64 -15 -164 -58 -179 -78 -12 -16 -24 -21 -39 -17 -14 3 -21 0
-21 -9 0 -14 8 -15 120 -18 19 -1 50 2 68 5 24 5 32 3 32 -7 0 -16 -39 -34
-76 -34 -13 0 -24 -4 -24 -9 0 -12 -41 -20 -105 -22 -79 -2 -134 9 -162 31
-14 11 -31 20 -38 20 -17 0 -54 44 -121 146 -67 101 -74 115 -50 95 9 -8 19
-11 22 -8 3 3 -6 13 -20 22 -14 10 -26 23 -26 30 0 7 -16 42 -35 79 -31 59
-43 96 -32 96 2 0 14 -9 27 -20z m887 -77 c-3 -10 -5 -4 -5 12 0 17 2 24 5 18
2 -7 2 -21 0 -30z m-132 -10 c-4 -16 -7 -29 -8 -30 -1 -1 -42 -3 -92 -5 -49
-1 -93 -7 -96 -12 -10 -13 -19 8 -10 23 5 8 29 14 55 15 31 1 46 5 46 15 0 9
11 12 40 9 22 -2 40 0 40 4 0 5 7 8 16 8 13 0 15 -6 9 -27z"/>
<path d="M1887 1443 c4 -12 31 -48 58 -80 28 -31 49 -61 47 -66 -1 -5 2 -6 8
-2 5 3 10 0 11 -7 0 -7 5 -2 10 11 6 17 6 27 -1 31 -6 4 -8 13 -5 21 3 9 -4
24 -17 35 l-23 19 19 -23 c11 -12 17 -24 14 -27 -3 -3 -11 1 -18 10 -17 21
-36 19 -19 -2 13 -16 12 -17 -3 -4 -10 7 -16 16 -14 20 5 8 -11 28 -47 61 -27
23 -28 23 -20 3z"/>
<path d="M2050 1083 c36 -14 74 -27 85 -29 11 -2 54 -13 95 -24 84 -23 285
-37 295 -20 4 6 -23 10 -77 11 -100 1 -220 17 -246 33 -9 5 -199 56 -209 56
-5 -1 21 -13 57 -27z"/>
<path d="M2548 1013 c6 -2 18 -2 25 0 6 3 1 5 -13 5 -14 0 -19 -2 -12 -5z"/>
<path d="M2665 978 c-29 -30 -29 -30 -3 -14 14 10 29 24 32 32 7 19 5 18 -29
-18z"/>
<path d="M2128 4303 c7 -3 16 -2 19 1 4 3 -2 6 -13 5 -11 0 -14 -3 -6 -6z"/>
<path d="M2088 4112 c-18 -29 -22 -55 -26 -159 -5 -139 5 -207 44 -281 22 -42
76 -92 99 -92 11 0 -2 257 -20 390 -13 105 -30 160 -47 160 -5 0 -7 4 -4 8 3
5 -2 9 -10 9 -8 0 -24 -16 -36 -35z m29 -104 c-3 -8 -6 -5 -6 6 -1 11 2 17 5
13 3 -3 4 -12 1 -19z"/>
<path d="M2323 3678 c-65 -131 -65 -133 -48 -198 8 -30 15 -69 15 -85 0 -30 1
-30 43 -27 23 2 47 8 52 12 40 31 172 92 201 93 19 1 34 6 34 11 0 6 -52 63
-115 126 -64 63 -115 121 -114 130 6 67 -12 50 -68 -62z"/>
<path d="M1947 3613 c-13 -70 15 -172 63 -233 16 -21 30 -41 30 -44 0 -4 -11
-11 -25 -16 -25 -9 -25 -11 -9 -35 9 -14 25 -25 36 -25 11 0 33 -11 50 -25 30
-26 48 -32 48 -16 0 4 25 34 55 65 l54 57 -32 35 c-18 19 -54 56 -82 82 -82
77 -165 164 -165 173 0 21 -18 6 -23 -18z"/>
<path d="M2509 3406 c-38 -20 -69 -44 -77 -60 -11 -23 -10 -29 9 -56 16 -20
26 -27 33 -20 5 5 21 10 35 10 14 0 38 12 53 27 21 20 38 27 64 26 l35 -1 -6
41 c-12 76 -49 84 -146 33z"/>
<path d="M2588 3277 c-25 -21 -27 -27 -30 -134 -2 -62 -3 -113 -2 -113 3 0 76
185 85 214 6 19 5 34 -2 43 -15 17 -20 17 -51 -10z"/>
<path d="M2485 3229 c-4 -6 -5 -12 -2 -15 2 -3 7 2 10 11 7 17 1 20 -8 4z"/>
<path d="M2436 3191 c-3 -5 1 -14 8 -20 12 -10 13 -8 9 8 -6 23 -9 25 -17 12z"/>
<path d="M1630 3186 c0 -2 7 -9 15 -16 9 -7 15 -8 15 -2 0 5 -7 12 -15 16 -8
3 -15 4 -15 2z"/>
<path d="M2511 3167 c-10 -25 -4 -74 10 -83 5 -3 9 20 9 50 0 60 -5 69 -19 33z"/>
<path d="M2597 3073 c-14 -32 -28 -71 -32 -88 l-6 -30 16 29 c19 33 57 138 51
143 -1 2 -15 -23 -29 -54z"/>
<path d="M1985 2529 c-12 -19 5 -23 22 -6 16 16 16 17 1 17 -9 0 -20 -5 -23
-11z"/>
</g>
</svg>
